<svg aria-hidden="true" style="position: absolute; width: 0; height: 0; overflow: hidden;" version="1.1"
    xmlns="http://www.w3.org/2000/svg" xmlns:xlink="http://www.w3.org/1999/xlink">
    <defs>
        <symbol id="icon-arrow-narrow-right-1" viewBox="0 0 32 32">
            <title>arrow-narrow-right-1</title>
            <path stroke-linejoin="round" stroke-linecap="round" stroke-miterlimit="4" stroke-width="3.2"
                d="M5.333 16h21.334M26.667 16l-8-8M26.667 16l-8 8"></path>
        </symbol>
        <symbol id="icon-Bookshelf-1" viewBox="0 0 176 32">
            <title>Bookshelf-1</title>
            <path
                d="M22.176 8.533c0-4.731-3.497-7.406-9.545-7.406h-12.631v29.417h13.33c6.089 0 9.998-2.921 9.998-8.599 0-4.402-2.633-6.665-5.719-7.2v-0.082c2.427-0.823 4.567-2.51 4.567-6.13zM4.896 13.305v-8.023h7.858c2.921 0 4.526 1.44 4.526 4.032s-1.317 3.991-4.814 3.991h-7.57zM4.896 16.967h8.599c3.086 0 4.937 1.687 4.937 4.69 0 2.757-1.275 4.731-5.472 4.731h-8.064v-9.422zM35.89 31.161c-6.583 0-10.574-4.567-10.574-11.109s3.991-11.109 10.574-11.109c6.583 0 10.574 4.567 10.574 11.109s-3.991 11.109-10.574 11.109zM35.89 27.623c4.114 0 6.254-3.25 6.254-7.57 0-4.361-2.139-7.57-6.254-7.57s-6.254 3.209-6.254 7.57c0 4.32 2.139 7.57 6.254 7.57zM58.912 31.161c-6.583 0-10.574-4.567-10.574-11.109s3.991-11.109 10.574-11.109c6.583 0 10.574 4.567 10.574 11.109s-3.991 11.109-10.574 11.109zM58.912 27.623c4.114 0 6.254-3.25 6.254-7.57 0-4.361-2.139-7.57-6.254-7.57s-6.254 3.209-6.254 7.57c0 4.32 2.139 7.57 6.254 7.57zM72.471 1.127v29.417h4.32v-7.611l2.921-2.757 6.624 10.368h5.184l-8.846-13.207 7.982-7.817h-5.307l-8.558 8.434v-16.827h-4.32zM101.934 17.831c-3.045-0.699-5.39-0.864-5.39-3.003 0-1.481 1.399-2.469 3.991-2.469 3.374 0 4.197 1.687 4.485 3.333h4.197c-0.288-3.662-3.003-6.747-8.722-6.747-5.266 0-8.311 2.757-8.311 6.213 0 4.773 4.526 5.431 7.858 6.213 3.086 0.741 5.595 0.946 5.595 3.579 0 1.317-1.275 2.798-4.279 2.798-4.443 0-5.431-1.934-5.637-4.197h-4.197c0.206 4.443 3.127 7.611 9.915 7.611 5.102 0 8.558-2.51 8.558-6.542 0-5.019-4.197-5.883-8.064-6.789zM124.123 8.944c-3.538 0-5.719 1.646-6.83 3.291h-0.082v-11.109h-4.32v29.417h4.32v-12.795c0-3.127 2.263-5.143 5.431-5.143 3.003 0 4.197 1.81 4.197 4.649v13.289h4.361v-14.523c0-4.814-3.086-7.077-7.077-7.077zM144.448 27.623c-3.826 0-6.089-2.921-6.089-6.459h16.128c0-7.488-3.333-12.219-10.121-12.219-6.336 0-10.327 4.279-10.327 11.109 0 6.583 3.991 11.109 10.533 11.109 5.39 0 8.517-3.045 9.586-7.035h-4.32c-0.37 1.275-1.81 3.497-5.39 3.497zM144.366 12.359c3.497 0 5.801 2.345 5.801 5.595h-11.808c0-3.25 2.51-5.595 6.007-5.595zM157.531 1.127v29.417h4.361v-29.417h-4.361zM176.002 4.665v-3.538c-0.864-0.179-1.858-0.284-2.877-0.288h-0.003c-3.456 0-5.349 1.563-5.349 6.007v2.674h-3.003v3.538h3.003v17.486h4.361v-17.486h3.867v-3.538h-3.865v-2.304c0-2.386 1.070-2.674 3.867-2.551z">
            </path>
        </symbol>
        <symbol id="icon-burger-1" viewBox="0 0 32 32">
            <path stroke-linejoin="round" stroke-linecap="round" stroke-miterlimit="4" stroke-width="2.2857"
                d="M22.667 13.333h-18.667"></path>
            <path stroke-linejoin="round" stroke-linecap="round" stroke-miterlimit="4" stroke-width="2.2857"
                d="M28 8h-24"></path>
            <path stroke-linejoin="round" stroke-linecap="round" stroke-miterlimit="4" stroke-width="2.2857"
                d="M28 18.667h-24"></path>
            <path stroke-linejoin="round" stroke-linecap="round" stroke-miterlimit="4" stroke-width="2.2857"
                d="M22.667 24h-18.667"></path>
        </symbol>
        <symbol id="icon-close-1" viewBox="0 0 32 32">
            <title>close-1</title>
            <path stroke-linejoin="round" stroke-linecap="round" stroke-miterlimit="4" stroke-width="3.4286"
                d="M24 8l-16 16M8 8l16 16"></path>
        </symbol>

        <symbol id="icon-lock-1" viewBox="0 0 32 32">
            <title>lock-1</title>
            <path stroke-linejoin="round" stroke-linecap="round" stroke-miterlimit="4" stroke-width="2.2857"
                d="M22.666 14.666v-4c0-3.682-2.985-6.666-6.666-6.666s-6.666 2.985-6.666 6.666v0 4M10.4 28h11.2c2.24 0 3.36 0 4.216-0.435 0.756-0.391 1.358-0.992 1.738-1.726l0.011-0.022c0.435-0.856 0.435-1.976 0.435-4.216v-0.534c0-2.24 0-3.36-0.435-4.216-0.391-0.756-0.992-1.358-1.726-1.738l-0.022-0.011c-0.856-0.434-1.976-0.434-4.216-0.434h-11.2c-2.24 0-3.36 0-4.216 0.434-0.756 0.391-1.358 0.992-1.738 1.726l-0.011 0.022c-0.435 0.857-0.435 1.977-0.435 4.217v0.533c0 2.24 0 3.36 0.435 4.216 0.391 0.756 0.992 1.358 1.726 1.738l0.022 0.011c0.856 0.435 1.976 0.435 4.216 0.435z">
            </path>
        </symbol>
        <symbol id="icon-logo-1" viewBox="0 0 32 32">
            <title>logo-1</title>
            <path fill="#f6f6f6" style="fill: var(--color3, #f6f6f6)" d="M0 0l16.343 16.172 15.657 15.828v-32h-32z">
            </path>
            <path fill="#f6f6f6" style="fill: var(--color3, #f6f6f6)"
                d="M4.457 4.228l11.943 11.829 11.257 11.485h-23.2v-23.315z"></path>
            <path fill="#4f2ee8" style="fill: var(--color4, #4f2ee8)"
                d="M27.733 27.619l-11.944-11.829-11.256-11.485h23.2v23.315z"></path>
            <path fill="#4f2ee8" style="fill: var(--color4, #4f2ee8)" d="M9.257 9.028l13.6 13.601h-13.6v-13.6z"></path>
            <path fill="#f6f6f6" style="fill: var(--color3, #f6f6f6)" d="M9.257 9.028l13.6 13.601v-13.6h-13.6z"></path>
        </symbol>
        <symbol id="icon-mail-1" viewBox="0 0 32 32">
            <title>mail-1</title>
            <path stroke-linejoin="round" stroke-linecap="round" stroke-miterlimit="4" stroke-width="2.2857"
                d="M28.666 24l-8.857-8M12.191 16l-8.857 8M2.666 9.334l10.887 7.621c0.881 0.617 1.322 0.926 1.802 1.045 0.423 0.106 0.866 0.106 1.289 0 0.48-0.119 0.921-0.427 1.802-1.045l10.887-7.621M9.066 26.666h13.867c2.24 0 3.36 0 4.216-0.435 0.756-0.391 1.358-0.992 1.738-1.726l0.011-0.022c0.434-0.855 0.434-1.976 0.434-4.216v-8.533c0-2.24 0-3.36-0.434-4.217-0.391-0.756-0.992-1.357-1.726-1.737l-0.022-0.011c-0.857-0.435-1.977-0.435-4.217-0.435h-13.865c-2.24 0-3.36 0-4.216 0.435-0.756 0.391-1.358 0.992-1.738 1.726l-0.010 0.022c-0.434 0.855-0.434 1.975-0.434 4.216v8.533c0 2.24 0 3.36 0.434 4.217 0.391 0.756 0.992 1.357 1.726 1.737l0.022 0.011c0.856 0.435 1.977 0.435 4.217 0.435z">
            </path>
        </symbol>
        <symbol id="icon-user-1" viewBox="0 0 32 32">
            <title>user-1</title>
            <path fill="#f6f6f6" style="fill: var(--color3, #f6f6f6)"
                d="M32 16c0 8.837-7.163 16-16 16s-16-7.163-16-16c0-8.837 7.163-16 16-16s16 7.163 16 16z"></path>
            <path fill="#4f2ee8" style="fill: var(--color4, #4f2ee8)"
                d="M10.523 22.847c0-3.025 2.452-5.477 5.477-5.477s5.477 2.452 5.477 5.477v0h-10.954zM16 16.685c-0 0-0.001 0-0.001 0-2.268 0-4.107-1.839-4.107-4.107 0-0 0-0.001 0-0.001v0c0-0 0-0.001 0-0.001 0-2.268 1.839-4.107 4.107-4.107 0 0 0.001 0 0.001 0h-0c0 0 0.001 0 0.001 0 2.268 0 4.107 1.839 4.107 4.107 0 0 0 0.001 0 0.001v-0c0 0 0 0.001 0 0.001 0 2.268-1.839 4.107-4.107 4.107-0 0-0.001 0-0.001 0h0z">
            </path>
        </symbol>
        <symbol id="icon-uil_cart" viewBox="0 0 32 32">
            <title>uil_cart</title>
            <path
                d="M25.333 9.333h-4v-1.333c0-1.415-0.562-2.771-1.562-3.771s-2.357-1.562-3.771-1.562c-1.414 0-2.771 0.562-3.771 1.562s-1.562 2.357-1.562 3.771v1.333h-4c-0.354 0-0.693 0.14-0.943 0.391s-0.391 0.589-0.391 0.943v14.667c0 1.061 0.421 2.078 1.172 2.828s1.768 1.172 2.828 1.172h13.333c1.061 0 2.078-0.421 2.828-1.172s1.172-1.768 1.172-2.828v-14.667c0-0.354-0.14-0.693-0.391-0.943s-0.589-0.391-0.943-0.391zM13.333 8c0-0.707 0.281-1.386 0.781-1.886s1.178-0.781 1.886-0.781c0.707 0 1.385 0.281 1.886 0.781s0.781 1.178 0.781 1.886v1.333h-5.333v-1.333zM24 25.333c0 0.354-0.14 0.693-0.391 0.943s-0.589 0.391-0.943 0.391h-13.333c-0.354 0-0.693-0.14-0.943-0.391s-0.391-0.589-0.391-0.943v-13.333h2.667v1.333c0 0.354 0.14 0.693 0.391 0.943s0.589 0.391 0.943 0.391c0.354 0 0.693-0.14 0.943-0.391s0.391-0.589 0.391-0.943v-1.333h5.333v1.333c0 0.354 0.14 0.693 0.39 0.943s0.589 0.391 0.943 0.391 0.693-0.14 0.943-0.391c0.25-0.25 0.391-0.589 0.391-0.943v-1.333h2.667v13.333z">
            </path>
        </symbol>
        <symbol id="icon-lock-unlocked" viewBox="0 0 32 32">
            <path stroke-linejoin="miter" stroke-linecap="butt" stroke-miterlimit="4" stroke-width="2"
                d="M2.667 21.333c0-3.771 0-5.657 1.172-6.828 1.171-1.172 3.057-1.172 6.828-1.172h10.667c3.771 0 5.657 0 6.828 1.172 1.172 1.171 1.172 3.057 1.172 6.828s0 5.657-1.172 6.828c-1.171 1.172-3.057 1.172-6.828 1.172h-10.667c-3.771 0-5.657 0-6.828-1.172-1.172-1.171-1.172-3.057-1.172-6.828z">
            </path>
            <path stroke-linejoin="miter" stroke-linecap="round" stroke-miterlimit="4" stroke-width="2"
                d="M8 13.333v-2.667c0-0.002 0-0.005 0-0.008 0-4.418 3.582-8 8-8 3.71 0 6.831 2.526 7.736 5.952l0.013 0.056">
            </path>
        </symbol>
        <symbol id="icon-fi-ss-caret-up-1" viewBox="0 0 32 32">
            <path d="M25.333 20.391h-18.667l8.391-8.391c0.241-0.241 0.575-0.39 0.943-0.39s0.701 0.149 0.943 0.39v0z">
            </path>
        </symbol>
        <symbol id="icon-down-1" viewBox="0 0 32 32">
            <path
                d="M5.898 12h16.512l-7.422 8.39c-0.203 0.237-0.501 0.387-0.834 0.391h-0.001c-0.334-0.004-0.632-0.155-0.833-0.39l-0.001-0.002-7.422-8.39z">
            </path>
        </symbol>




    </defs>
</svg>