<!-- Generated by IcoMoon.io -->
<svg version="1.1" xmlns="http://www.w3.org/2000/svg" width="1024" height="1024" viewBox="0 0 1024 1024">
<title></title>
<g id="icomoon-ignore">
</g>
<path d="M512-1.088c-282.912 0-513.12 230.144-513.12 513.088s230.208 513.088 513.12 513.088 513.12-230.144 513.12-513.088-230.208-513.088-513.12-513.088zM512 990.912c-264.064 0-478.88-214.848-478.88-478.912s214.816-478.912 478.88-478.912 478.88 214.848 478.88 478.912-214.816 478.912-478.88 478.912zM517.216 634.336c-89.248 0-175.264 37.728-235.968 103.52-6.4 6.944-5.984 17.76 0.992 24.16 6.912 6.4 17.728 6.016 24.16-0.96 54.24-58.816 131.072-92.544 210.784-92.544 80.928 0 158.592 34.592 212.992 94.944 3.36 3.712 8.032 5.632 12.704 5.632 4.096 0 8.192-1.44 11.456-4.416 7.008-6.304 7.584-17.12 1.248-24.16-60.896-67.488-147.776-106.176-238.368-106.176zM336 528c35.296 0 64-28.704 64-64s-28.704-64-64-64-64 28.704-64 64 28.704 64 64 64zM336 432c17.632 0 32 14.336 32 32s-14.368 32-32 32-32-14.336-32-32 14.368-32 32-32zM688 528c35.296 0 64-28.704 64-64s-28.704-64-64-64-64 28.704-64 64 28.704 64 64 64zM688 432c17.632 0 32 14.336 32 32s-14.368 32-32 32-32-14.336-32-32 14.368-32 32-32z"></path>
</svg>
