<svg aria-hidden="true" style="position: absolute; width: 0; height: 0; overflow: hidden;" version="1.1" xmlns="http://www.w3.org/2000/svg" xmlns:xlink="http://www.w3.org/1999/xlink">
<defs>
<symbol id="icon-arrow-small-right" viewBox="0 0 32 32">
<path d="M17.867 16.947c0.125-0.124 0.224-0.271 0.292-0.434s0.103-0.337 0.103-0.513c0-0.176-0.035-0.35-0.103-0.513s-0.167-0.31-0.292-0.434l-6.12-6.107c-0.125-0.124-0.224-0.271-0.292-0.434s-0.103-0.337-0.103-0.513c0-0.176 0.035-0.35 0.103-0.513s0.167-0.31 0.292-0.434c0.25-0.248 0.588-0.388 0.94-0.388s0.69 0.139 0.94 0.388l6.12 6.12c0.749 0.75 1.17 1.767 1.17 2.827s-0.421 2.077-1.17 2.827l-6.12 6.12c-0.248 0.246-0.584 0.385-0.933 0.387-0.175 0.001-0.349-0.033-0.512-0.099s-0.31-0.164-0.435-0.288c-0.125-0.124-0.224-0.271-0.292-0.434s-0.103-0.337-0.103-0.513c0-0.176 0.035-0.35 0.103-0.513s0.167-0.31 0.292-0.434l6.12-6.107z"></path>
</symbol>
<symbol id="icon-arrow-down" viewBox="0 0 28 32">
<path d="M5.898 12h16.513l-7.423 8.391c-0.221 0.25-0.521 0.39-0.834 0.39s-0.613-0.14-0.834-0.39l-7.422-8.391z"></path>
</symbol>
<symbol id="icon-arrow-right" viewBox="0 0 43 32">
<path fill="none" stroke="#eac645" style="stroke: var(--color2, #eac645)" stroke-linejoin="round" stroke-linecap="round" stroke-miterlimit="4" stroke-width="5.3333" d="M3.555 16h35.556M39.111 16l-13.333-13.333M39.111 16l-13.333 13.333"></path>
</symbol>
<symbol id="icon-arrow-up" viewBox="0 0 55 32">
<path d="M1.091 25.309l24.436-24.509c0.291-0.291 0.606-0.496 0.945-0.617 0.339-0.122 0.703-0.183 1.091-0.183s0.752 0.061 1.091 0.183c0.339 0.12 0.655 0.326 0.946 0.617l24.509 24.509c0.679 0.679 1.018 1.527 1.018 2.545s-0.364 1.891-1.091 2.618c-0.727 0.727-1.576 1.091-2.545 1.091s-1.818-0.364-2.545-1.091l-21.382-21.382-21.382 21.382c-0.679 0.679-1.515 1.018-2.508 1.018-0.995 0-1.856-0.364-2.583-1.091s-1.091-1.576-1.091-2.545c0-0.97 0.364-1.818 1.091-2.545z"></path>
</symbol>

<symbol id="icon-blank-small" viewBox="0 0 32 32">
<path d="M31.229 9.921c-0.684-0.358-1.396-0.656-2.138-0.91v17.947c-1.658-0.612-3.36-0.925-5.091-0.925-2.764 0-5.498 0.806-8 2.357v-18.051c-2.356-1.387-5.076-2.208-8-2.208-2.604 0-5.062 0.656-7.229 1.79-0.48 0.239-0.771 0.761-0.771 1.313v18.021c0 0.865 0.684 1.477 1.455 1.477 0.233 0 0.465-0.060 0.698-0.179 1.76-0.94 3.738-1.537 5.847-1.537 3.011 0 5.789 1.223 8 2.984 2.211-1.76 4.989-2.984 8-2.984 2.109 0 4.087 0.597 5.847 1.552 0.233 0.119 0.465 0.179 0.698 0.179 0.756 0 1.455-0.612 1.455-1.477v-18.036c0-0.552-0.291-1.074-0.771-1.313zM13.091 26.958c-1.658-0.612-3.36-0.925-5.091-0.925s-3.433 0.313-5.091 0.925v-14.784c1.615-0.701 3.316-1.059 5.091-1.059 1.745 0 3.476 0.373 5.091 1.074v14.769zM26.182 2.909l-7.273 7.459v14.172l7.273-6.713v-14.918z"></path>
</symbol>
<symbol id="icon-emblem-trident" viewBox="0 0 20 32">
<path d="M9.005 30.888c-1.738-1.262-2.991-3.156-3.414-5.351h-5.591v-23.117c2.991 1.443 5.153 4.599 5.388 7.876l0.846 6.493-0.407-0.045c-0.893 0-1.676 0.812-1.676 1.608 0 0.752 0.595 1.383 1.378 1.548l1.018 0.226c1.676-3.051 2.631-6.042 2.631-8.973 0-2.645-0.36-5.291-0.423-7.996 0-1.202 0.486-2.3 1.253-3.156 0.783 0.857 1.253 1.954 1.253 3.156 0 2.705-0.423 5.351-0.423 7.996 0 2.931 0.955 5.922 2.631 8.973l1.018-0.226c0.783-0.165 1.378-0.812 1.378-1.548 0-0.812-0.783-1.608-1.676-1.608l-0.423 0.060 0.846-6.493c0.423-3.277 2.396-6.448 5.388-7.876v23.117h-5.576c-0.423 2.179-1.613 4.148-3.414 5.351-0.423 0.286-0.783 0.631-1.018 1.097-0.219-0.466-0.579-0.812-0.987-1.112zM2.647 17.556c0.235-0.857 0.893-1.608 1.738-2.074l-0.658-5.351c-0.235-1.668-0.955-3.156-2.036-4.374v11.784h0.955v0.015zM5.466 23.929c0-0.812 0.125-1.548 0.298-2.3l-0.783-0.18c-1.143-0.346-2.036-1.203-2.334-2.3h-0.955v4.78h3.774zM9.178 23.929c0-0.977-0.783-1.834-1.801-1.954-0.172 0.631-0.298 1.263-0.298 1.954h2.099zM9.178 25.552h-1.864c0.298 1.263 0.955 2.42 1.864 3.397v-3.397zM11.809 20.547c-0.72-1.262-1.378-2.585-1.801-3.968-0.423 1.383-1.081 2.706-1.801 3.968 0.72 0.165 1.316 0.631 1.801 1.157 0.486-0.526 1.081-0.992 1.801-1.157zM12.952 23.929c0-0.691-0.125-1.323-0.297-1.954-1.018 0.12-1.801 0.977-1.801 1.954h2.099zM12.717 25.552h-1.864v3.397c0.908-0.992 1.566-2.134 1.864-3.397zM18.34 23.929v-4.78h-0.955c-0.298 1.097-1.206 1.954-2.334 2.3l-0.783 0.18c0.172 0.752 0.298 1.488 0.298 2.3h3.774zM18.34 17.556v-11.799c-1.081 1.202-1.864 2.706-2.036 4.374l-0.658 5.351c0.846 0.466 1.504 1.203 1.739 2.074h0.955z"></path>
</symbol>
<symbol id="icon-handbag" viewBox="0 0 32 32">
<path d="M25.333 9.333h-4v-1.333c0-1.415-0.562-2.771-1.562-3.771s-2.357-1.562-3.771-1.562c-1.414 0-2.771 0.562-3.771 1.562s-1.562 2.357-1.562 3.771v1.333h-4c-0.354 0-0.693 0.14-0.943 0.391s-0.391 0.589-0.391 0.943v14.667c0 1.061 0.421 2.078 1.172 2.828s1.768 1.172 2.828 1.172h13.333c1.061 0 2.078-0.421 2.828-1.172s1.172-1.768 1.172-2.828v-14.667c0-0.354-0.14-0.693-0.391-0.943s-0.589-0.391-0.943-0.391zM13.333 8c0-0.707 0.281-1.386 0.781-1.886s1.178-0.781 1.886-0.781c0.707 0 1.385 0.281 1.886 0.781s0.781 1.178 0.781 1.886v1.333h-5.333v-1.333zM24 25.333c0 0.354-0.14 0.693-0.391 0.943s-0.589 0.391-0.943 0.391h-13.333c-0.354 0-0.693-0.14-0.943-0.391s-0.391-0.589-0.391-0.943v-13.333h2.667v1.333c0 0.354 0.14 0.693 0.391 0.943s0.589 0.391 0.943 0.391c0.354 0 0.693-0.14 0.943-0.391s0.391-0.589 0.391-0.943v-1.333h5.333v1.333c0 0.354 0.14 0.693 0.39 0.943s0.589 0.391 0.943 0.391 0.693-0.14 0.943-0.391c0.25-0.25 0.391-0.589 0.391-0.943v-1.333h2.667v13.333z"></path>
</symbol>

<svg id="icon-favicon" xmlns="http://www.w3.org/2000/svg" width="24" height="24" viewBox="0 0 24 24" fill="none">
  <g clip-path="url(#clip0_4313_342)">
    <path d="M0 0L12.2571 12.1286L24 24V0H0Z" fill="#F6F6F6"/>
    <path d="M3.34277 3.17145L12.2999 12.0429L20.7428 20.6572H3.34277V3.17145Z" fill="#F6F6F6"/>
    <path d="M20.7997 20.7137L11.8425 11.8423L3.39966 3.22797H20.7997V20.7137Z" fill="#4F2EE8"/>
    <path d="M6.94287 6.77142L11.7 11.5286L17.1429 16.9714H6.94287V6.77142Z" fill="#4F2EE8"/>
    <path d="M6.94287 6.77142L11.7 11.5286L17.1429 16.9714V6.77142H6.94287Z" fill="#F6F6F6"/>
  </g>
  <defs>
    <clipPath id="clip0_4313_342">
      <rect width="24" height="24" fill="white"/>
    </clipPath>
  </defs>
</svg>

<symbol id="icon-logo" viewBox="0 0 126 32">
<path fill="#f6f6f6" style="fill: var(--color4, #f6f6f6)" d="M0 2.286l14.008 13.861 13.42 13.567v-27.429h-27.429z"></path>
<path fill="#f6f6f6" style="fill: var(--color4, #f6f6f6)" d="M3.82 5.91l10.237 10.139 9.649 9.845h-19.886v-19.984z"></path>
<path fill="#4f2ee8" style="fill: var(--color3, #4f2ee8)" d="M23.771 25.959l-10.237-10.139-9.649-9.845h19.886v19.984z"></path>
<path fill="#4f2ee8" style="fill: var(--color3, #4f2ee8)" d="M7.935 10.024l11.657 11.657h-11.657v-11.657z"></path>
<path fill="#f6f6f6" style="fill: var(--color4, #f6f6f6)" d="M7.935 10.024l11.657 11.657v-11.657h-11.657z"></path>
<path fill="#000" style="fill: var(--color5, #000)" d="M47.659 12.266c0-2.366-1.749-3.703-4.773-3.703h-6.315v14.709h6.665c3.045 0 4.999-1.461 4.999-4.299 0-2.201-1.317-3.333-2.859-3.6v-0.041c1.214-0.411 2.283-1.255 2.283-3.065zM39.019 14.653v-4.011h3.929c1.461 0 2.263 0.72 2.263 2.016s-0.658 1.995-2.407 1.995h-3.785zM39.019 16.483h4.299c1.543 0 2.469 0.843 2.469 2.345 0 1.378-0.638 2.366-2.736 2.366h-4.032v-4.711z"></path>
<path fill="#000" style="fill: var(--color5, #000)" d="M54.516 23.581c-3.291 0-5.287-2.283-5.287-5.554s1.995-5.554 5.287-5.554c3.291 0 5.287 2.283 5.287 5.554s-1.995 5.554-5.287 5.554zM54.516 21.811c2.057 0 3.127-1.625 3.127-3.785 0-2.181-1.070-3.785-3.127-3.785s-3.127 1.605-3.127 3.785c0 2.16 1.070 3.785 3.127 3.785z"></path>
<path fill="#000" style="fill: var(--color5, #000)" d="M66.027 23.581c-3.291 0-5.287-2.283-5.287-5.554s1.995-5.554 5.287-5.554c3.291 0 5.287 2.283 5.287 5.554s-1.995 5.554-5.287 5.554zM66.027 21.811c2.057 0 3.127-1.625 3.127-3.785 0-2.181-1.070-3.785-3.127-3.785s-3.127 1.605-3.127 3.785c0 2.16 1.070 3.785 3.127 3.785z"></path>
<path fill="#000" style="fill: var(--color5, #000)" d="M72.807 8.563v14.709h2.16v-3.806l1.461-1.378 3.312 5.184h2.592l-4.423-6.603 3.991-3.909h-2.654l-4.279 4.217v-8.414h-2.16z"></path>
<path fill="#000" style="fill: var(--color5, #000)" d="M87.539 16.915c-1.522-0.35-2.695-0.432-2.695-1.502 0-0.741 0.699-1.234 1.995-1.234 1.687 0 2.098 0.843 2.242 1.666h2.098c-0.144-1.831-1.502-3.374-4.361-3.374-2.633 0-4.155 1.378-4.155 3.106 0 2.386 2.263 2.715 3.929 3.106 1.543 0.37 2.798 0.473 2.798 1.79 0 0.658-0.638 1.399-2.139 1.399-2.222 0-2.715-0.967-2.818-2.098h-2.098c0.103 2.222 1.563 3.806 4.958 3.806 2.551 0 4.279-1.255 4.279-3.271 0-2.51-2.098-2.942-4.032-3.394z"></path>
<path fill="#000" style="fill: var(--color5, #000)" d="M98.633 12.472c-1.769 0-2.859 0.823-3.415 1.646h-0.041v-5.554h-2.16v14.709h2.16v-6.398c0-1.563 1.131-2.571 2.715-2.571 1.502 0 2.098 0.905 2.098 2.325v6.645h2.181v-7.262c0-2.407-1.543-3.538-3.538-3.538z"></path>
<path fill="#000" style="fill: var(--color5, #000)" d="M108.796 21.811c-1.913 0-3.045-1.461-3.045-3.23h8.064c0-3.744-1.666-6.11-5.061-6.11-3.168 0-5.163 2.139-5.163 5.554 0 3.291 1.995 5.554 5.266 5.554 2.695 0 4.258-1.522 4.793-3.518h-2.16c-0.185 0.638-0.905 1.749-2.695 1.749zM108.754 14.179c1.749 0 2.901 1.173 2.901 2.798h-5.904c0-1.625 1.255-2.798 3.003-2.798z"></path>
<path fill="#000" style="fill: var(--color5, #000)" d="M115.337 8.563v14.709h2.181v-14.709h-2.181z"></path>
<path fill="#000" style="fill: var(--color5, #000)" d="M124.573 10.333v-1.769c-0.432-0.082-0.905-0.144-1.44-0.144-1.728 0-2.674 0.782-2.674 3.003v1.337h-1.502v1.769h1.502v8.743h2.181v-8.743h1.934v-1.769h-1.934v-1.152c0-1.193 0.535-1.337 1.934-1.275z"></path>
</symbol>

<symbol id="icon-logo-dark" viewBox="0 0 126 32">
<path fill="#f6f6f6" style="fill: var(--color4, #f6f6f6)" d="M0 2.286l14.008 13.861 13.42 13.567v-27.429h-27.429z"></path>
<path fill="#f6f6f6" style="fill: var(--color4, #f6f6f6)" d="M3.82 5.91l10.237 10.139 9.649 9.845h-19.886v-19.984z"></path>
<path fill="#4f2ee8" style="fill: var(--color3, #4f2ee8)" d="M23.771 25.959l-10.237-10.139-9.649-9.845h19.886v19.984z"></path>
<path fill="#4f2ee8" style="fill: var(--color3, #4f2ee8)" d="M7.935 10.024l11.657 11.657h-11.657v-11.657z"></path>
<path fill="#f6f6f6" style="fill: var(--color4, #f6f6f6)" d="M7.935 10.024l11.657 11.657v-11.657h-11.657z"></path>
<path fill="#f3f3f3" style="fill: var(--color6, #f3f3f3)" d="M47.659 12.266c0-2.366-1.749-3.703-4.773-3.703h-6.315v14.709h6.665c3.045 0 4.999-1.461 4.999-4.299 0-2.201-1.317-3.333-2.859-3.6v-0.041c1.214-0.411 2.283-1.255 2.283-3.065zM39.019 14.653v-4.011h3.929c1.461 0 2.263 0.72 2.263 2.016s-0.658 1.995-2.407 1.995h-3.785zM39.019 16.483h4.299c1.543 0 2.469 0.843 2.469 2.345 0 1.378-0.638 2.366-2.736 2.366h-4.032v-4.711z"></path>
<path fill="#f3f3f3" style="fill: var(--color6, #f3f3f3)" d="M54.516 23.581c-3.291 0-5.287-2.283-5.287-5.554s1.995-5.554 5.287-5.554c3.291 0 5.287 2.283 5.287 5.554s-1.995 5.554-5.287 5.554zM54.516 21.811c2.057 0 3.127-1.625 3.127-3.785 0-2.181-1.070-3.785-3.127-3.785s-3.127 1.605-3.127 3.785c0 2.16 1.070 3.785 3.127 3.785z"></path>
<path fill="#f3f3f3" style="fill: var(--color6, #f3f3f3)" d="M66.027 23.581c-3.291 0-5.287-2.283-5.287-5.554s1.995-5.554 5.287-5.554c3.291 0 5.287 2.283 5.287 5.554s-1.995 5.554-5.287 5.554zM66.027 21.811c2.057 0 3.127-1.625 3.127-3.785 0-2.181-1.070-3.785-3.127-3.785s-3.127 1.605-3.127 3.785c0 2.16 1.070 3.785 3.127 3.785z"></path>
<path fill="#f3f3f3" style="fill: var(--color6, #f3f3f3)" d="M72.807 8.563v14.709h2.16v-3.806l1.461-1.378 3.312 5.184h2.592l-4.423-6.603 3.991-3.909h-2.654l-4.279 4.217v-8.414h-2.16z"></path>
<path fill="#f3f3f3" style="fill: var(--color6, #f3f3f3)" d="M87.539 16.915c-1.522-0.35-2.695-0.432-2.695-1.502 0-0.741 0.699-1.234 1.995-1.234 1.687 0 2.098 0.843 2.242 1.666h2.098c-0.144-1.831-1.502-3.374-4.361-3.374-2.633 0-4.155 1.378-4.155 3.106 0 2.386 2.263 2.715 3.929 3.106 1.543 0.37 2.798 0.473 2.798 1.79 0 0.658-0.638 1.399-2.139 1.399-2.222 0-2.715-0.967-2.818-2.098h-2.098c0.103 2.222 1.563 3.806 4.958 3.806 2.551 0 4.279-1.255 4.279-3.271 0-2.51-2.098-2.942-4.032-3.394z"></path>
<path fill="#f3f3f3" style="fill: var(--color6, #f3f3f3)" d="M98.633 12.472c-1.769 0-2.859 0.823-3.415 1.646h-0.041v-5.554h-2.16v14.709h2.16v-6.398c0-1.563 1.131-2.571 2.715-2.571 1.502 0 2.098 0.905 2.098 2.325v6.645h2.181v-7.262c0-2.407-1.543-3.538-3.538-3.538z"></path>
<path fill="#f3f3f3" style="fill: var(--color6, #f3f3f3)" d="M108.796 21.811c-1.913 0-3.045-1.461-3.045-3.23h8.064c0-3.744-1.666-6.11-5.061-6.11-3.168 0-5.163 2.139-5.163 5.554 0 3.291 1.995 5.554 5.266 5.554 2.695 0 4.258-1.522 4.793-3.518h-2.16c-0.185 0.638-0.905 1.749-2.695 1.749zM108.754 14.179c1.749 0 2.901 1.173 2.901 2.798h-5.904c0-1.625 1.255-2.798 3.003-2.798z"></path>
<path fill="#f3f3f3" style="fill: var(--color6, #f3f3f3)" d="M115.337 8.563v14.709h2.181v-14.709h-2.181z"></path>
<path fill="#f3f3f3" style="fill: var(--color6, #f3f3f3)" d="M124.573 10.333v-1.769c-0.432-0.082-0.905-0.144-1.44-0.144-1.728 0-2.674 0.782-2.674 3.003v1.337h-1.502v1.769h1.502v8.743h2.181v-8.743h1.934v-1.769h-1.934v-1.152c0-1.193 0.535-1.337 1.934-1.275z"></path>
</symbol>
<symbol id="icon-user" viewBox="0 0 23 32">
<path d="M0.296 30.963c0-2.986 1.186-5.85 3.298-7.962s4.975-3.298 7.962-3.298 5.85 1.186 7.961 3.298c2.112 2.112 3.298 4.975 3.298 7.962h-22.518zM11.556 18.296c-4.666 0-8.444-3.779-8.444-8.444s3.779-8.444 8.444-8.444c4.666 0 8.444 3.779 8.444 8.444s-3.779 8.444-8.444 8.444z"></path>
</symbol>
<symbol id="icon-burger" viewBox="0 0 46 32">
<path d="M0 2.274c0-1.257 1.019-2.274 2.274-2.274h18.309c0.603 0 1.182 0.24 1.608 0.666s0.666 1.005 0.666 1.608c0 0.603-0.24 1.182-0.666 1.608s-1.005 0.666-1.608 0.666h-18.309c-0.603 0-1.182-0.24-1.608-0.666s-0.666-1.005-0.666-1.608zM0 16c0-1.257 1.019-2.274 2.274-2.274h41.166c0.603 0 1.182 0.24 1.608 0.666s0.666 1.005 0.666 1.608c0 0.603-0.24 1.182-0.666 1.608s-1.005 0.666-1.608 0.666h-41.166c-0.603 0-1.182-0.24-1.608-0.666s-0.666-1.005-0.666-1.608zM2.274 27.451c-0.603 0-1.182 0.24-1.608 0.666s-0.666 1.005-0.666 1.608c0 0.603 0.24 1.182 0.666 1.608s1.005 0.666 1.608 0.666h27.451c0.603 0 1.182-0.24 1.608-0.666s0.666-1.005 0.666-1.608c0-0.603-0.24-1.182-0.666-1.608s-1.005-0.666-1.608-0.666h-27.451z"></path>
</symbol>
<symbol id="icon-basket" viewBox="0 0 32 32">
<path fill="none" stroke-linejoin="round" stroke-linecap="round" stroke-miterlimit="4" stroke-width="2.9091" d="M12 4h8M4 8h24M25.333 8l-0.935 14.026c-0.14 2.104-0.21 3.157-0.665 3.954-0.4 0.702-1.004 1.267-1.731 1.619-0.826 0.4-1.881 0.4-3.99 0.4h-4.025c-2.109 0-3.163 0-3.99-0.4-0.727-0.353-1.331-0.917-1.731-1.619-0.455-0.798-0.525-1.85-0.665-3.954l-0.935-14.026M13.333 14v6.667M18.667 14v6.667"></path>
</symbol>
<symbol id="icon-close" viewBox="0 0 32 32">
<path stroke-linejoin="round" stroke-linecap="round" stroke-miterlimit="4" stroke-width="5.3333" d="M28.444 3.556l-24.889 24.889M3.556 3.556l24.889 24.889"></path>
</symbol>
<symbol id="icon-message" viewBox="0 0 32 32">
<path fill="none" stroke="#111" style="stroke: var(--color3, #111)" stroke-linejoin="round" stroke-linecap="round" stroke-miterlimit="4" stroke-width="2.2857" d="M28.666 24l-8.857-8M12.19 16l-8.857 8M2.667 9.333l10.887 7.621c0.882 0.617 1.322 0.926 1.802 1.045 0.423 0.106 0.866 0.106 1.29 0 0.479-0.12 0.92-0.428 1.802-1.045l10.887-7.621M9.067 26.667h13.867c2.24 0 3.36 0 4.216-0.436 0.753-0.384 1.365-0.995 1.748-1.748 0.436-0.856 0.436-1.976 0.436-4.216v-8.533c0-2.24 0-3.36-0.436-4.216-0.383-0.753-0.995-1.365-1.748-1.748-0.856-0.436-1.976-0.436-4.216-0.436h-13.867c-2.24 0-3.36 0-4.216 0.436-0.753 0.383-1.365 0.995-1.748 1.748-0.436 0.856-0.436 1.976-0.436 4.216v8.533c0 2.24 0 3.36 0.436 4.216 0.384 0.753 0.995 1.365 1.748 1.748 0.856 0.436 1.976 0.436 4.216 0.436z"></path>
</symbol>
<symbol id="icon-lock" viewBox="0 0 32 32">
<path fill="none" stroke="#111" style="stroke: var(--color3, #111)" stroke-linejoin="round" stroke-linecap="round" stroke-miterlimit="4" stroke-width="2.2857" d="M22.667 14.667v-4c0-3.682-2.985-6.667-6.667-6.667s-6.667 2.985-6.667 6.667v4M10.4 28h11.2c2.24 0 3.36 0 4.216-0.436 0.753-0.383 1.365-0.995 1.748-1.748 0.436-0.856 0.436-1.976 0.436-4.216v-0.533c0-2.24 0-3.36-0.436-4.216-0.383-0.753-0.995-1.365-1.748-1.748-0.856-0.436-1.976-0.436-4.216-0.436h-11.2c-2.24 0-3.36 0-4.216 0.436-0.753 0.384-1.365 0.995-1.748 1.748-0.436 0.856-0.436 1.976-0.436 4.216v0.533c0 2.24 0 3.36 0.436 4.216 0.383 0.753 0.995 1.365 1.748 1.748 0.856 0.436 1.976 0.436 4.216 0.436z"></path>
</symbol>
<symbol id="icon-emblem" xmlns="http://www.w3.org/2000/svg" width="20" height="32" viewBox="0 0 20 32" fill="none">
<path d="M9.00548 30.8877C7.26703 29.6252 6.0141 27.7313 5.59123 25.5369H0V2.41992C2.99139 3.86285 5.1527 7.01926 5.38763 10.2959L6.23336 16.7891L5.82615 16.744C4.93344 16.744 4.15035 17.5557 4.15035 18.3523C4.15035 19.1038 4.7455 19.7351 5.52858 19.9004L6.54659 20.1259C8.2224 17.0747 9.17776 14.0836 9.17776 11.1527C9.17776 8.50728 8.81754 5.86191 8.75489 3.15641C8.75489 1.95397 9.24041 0.85674 10.0078 0C10.7909 0.85674 11.2608 1.95397 11.2608 3.15641C11.2608 5.86191 10.8379 8.50728 10.8379 11.1527C10.8379 14.0836 11.7933 17.0747 13.4691 20.1259L14.4871 19.9004C15.2702 19.7351 15.8653 19.0888 15.8653 18.3523C15.8653 17.5406 15.0822 16.744 14.1895 16.744L13.7666 16.8041L14.6124 10.3109C15.0352 7.03429 17.0086 3.86285 20 2.43495V25.5519H14.4244C14.0016 27.7313 12.8113 29.7003 11.0102 30.9028C10.5873 31.1884 10.2271 31.5341 9.99217 32C9.77291 31.5341 9.41269 31.1884 9.00548 30.8877ZM2.64683 17.5557C2.88175 16.6989 3.53955 15.9474 4.38528 15.4814L3.72749 10.1306C3.49256 8.46219 2.77212 6.97417 1.69146 5.75669V17.5406H2.64683V17.5557ZM5.46593 23.9286C5.46593 23.117 5.59123 22.3805 5.76351 21.6289L4.98042 21.4486C3.83712 21.1029 2.9444 20.2461 2.64683 19.1489H1.69146V23.9286H5.46593ZM9.17776 23.9286C9.17776 22.9516 8.39467 22.0949 7.37666 21.9746C7.20438 22.6059 7.07909 23.2372 7.07909 23.9286H9.17776ZM9.17776 25.5519H7.31402C7.61159 26.8145 8.26938 27.9718 9.17776 28.9488V25.5519ZM11.8089 20.5467C11.0885 19.2842 10.4307 17.9615 10.0078 16.5787C9.58496 17.9615 8.92717 19.2842 8.20673 20.5467C8.92717 20.7121 9.52232 21.178 10.0078 21.7041C10.4933 21.178 11.0885 20.7121 11.8089 20.5467ZM12.9522 23.9286C12.9522 23.2372 12.8269 22.6059 12.6547 21.9746C11.6366 22.0949 10.8536 22.9516 10.8536 23.9286H12.9522ZM12.7173 25.5519H10.8536V28.9488C11.7619 27.9568 12.4197 26.8145 12.7173 25.5519ZM18.3399 23.9286V19.1489H17.3845C17.0869 20.2461 16.1785 21.1029 15.0509 21.4486L14.2678 21.6289C14.4401 22.3805 14.5654 23.117 14.5654 23.9286H18.3399ZM18.3399 17.5557V5.75669C17.2592 6.95914 16.4761 8.46219 16.3038 10.1306L15.646 15.4814C16.4918 15.9474 17.1496 16.6839 17.3845 17.5557H18.3399Z" fill="white"/>
</symbol>
<symbol id="icon-remove" viewBox="0 0 34 32">
<path fill="none" stroke="#fff" style="stroke: var(--color1, #fff)" stroke-linejoin="round" stroke-linecap="round" stroke-miterlimit="4" stroke-width="3.0476" d="M12.571 2.667h8.381M4.19 6.857h25.143M26.54 6.857l-0.98 14.694c-0.147 2.204-0.221 3.307-0.697 4.143-0.419 0.736-1.052 1.327-1.814 1.697-0.866 0.419-1.97 0.419-4.18 0.419h-4.217c-2.209 0-3.314 0-4.18-0.419-0.762-0.369-1.394-0.961-1.814-1.697-0.476-0.836-0.55-1.938-0.697-4.143l-0.98-14.694M13.968 13.143v6.984M19.555 13.143v6.984"></path>
</symbol>
<symbol id="icon-arrow" viewBox="0 0 32 32">
<path d="M31.68 8.593l-1.603-1.603c-0.214-0.214-0.46-0.321-0.738-0.321s-0.523 0.107-0.737 0.321l-12.602 12.601-12.601-12.601c-0.214-0.214-0.46-0.321-0.738-0.321s-0.524 0.107-0.738 0.321l-1.603 1.603c-0.214 0.214-0.321 0.46-0.321 0.738s0.107 0.524 0.321 0.737l14.942 14.942c0.214 0.214 0.46 0.321 0.738 0.321s0.523-0.107 0.737-0.321l14.943-14.942c0.214-0.214 0.32-0.46 0.32-0.737s-0.106-0.524-0.32-0.738z"></path>

<symbol id="icon-linkedin" viewBox="0 0 32 32">
<path d="M2.421 10.12c0.972 0.622 2.823 0.645 4.026 0.553s3.078-1.568 3.193-4.15c0.116-2.582-1.735-3.942-1.735-3.942-2.221-1.89-5.275-0.806-5.923-0.415-0.648 0.393-2.384 1.96-1.897 4.104s1.176 3.106 2.337 3.85zM1.56 3.405c0.477-0.669 1.492-1.366 3.453-1.073s2.516 1.141 3.037 1.954 0.485 1.539 0.485 1.539-1.266-2.178-1.457-2.143-0.468 0.398-0.33 0.623c0.14 0.225 1.58 2.144 1.528 2.283s-0.104 0.536-0.173 0.433c-0.070-0.104-1.215-2.144-1.371-2.11-0.156 0.035-0.365 0.277-0.26 0.554 0.104 0.277 1.353 1.954 1.301 2.023s-0.277 0.38-0.347 0.277c-0.070-0.104-1.024-1.989-1.215-1.937s-0.346 0.26-0.225 0.57c0.122 0.311 1.145 1.66 1.076 1.747s-0.26 0.277-0.347 0.225c-0.087-0.052-1.076-1.643-1.232-1.625s-0.468 0.345-0.295 0.553c0.173 0.207 1.058 1.331 0.955 1.384-0.105 0.052-0.764 0.172-0.868 0.138s-0.59-1.124-0.746-1.124-0.486 0.242-0.434 0.45c0.052 0.207 0.66 0.725 0.486 0.795s-1.961-0.19-2.759-0.761-1.667-2.802-0.261-4.773zM2.757 7.417c0.139-0.138 0.122-0.19 0.122-0.363s-0.469-0.502-0.555-0.779c-0.087-0.277-0.018-1.090 0.381-1.505s0.503-0.691 0.173-0.83c-0.33-0.138-1.041 0.295-1.198 1.211s0 1.712 0.278 2.058 0.655 0.35 0.798 0.208zM4.475 13.814c-0.347-0.104-2.221-0.104-2.447-0.069s-0.295 2.594-0.26 2.87 0 0.71 0.225 0.727c0 0 0.382 0.052 0.486 0.017s0.174-2.576 0.225-2.767c0.053-0.19 1.91-0.035 1.996-0.121 0.088-0.087 0.122-0.554-0.225-0.658zM8.97 12.241c-0.695-0.259-4.287-0.345-5.519-0.363s-2.632-0.049-2.811 0.242c-0.139 0.225-0.070 5.204-0.139 8.472s-0.278 8.248-0.173 8.438c0.104 0.19 2.1 1.608 2.256 1.729s0.555 0.173 1.614 0.155c1.058-0.017 4.512 0.156 4.929 0.052s0.885-0.26 1.024-0.553c0.139-0.294 0.174-1.799 0.243-5.205s0.572-7.936 0.486-9.735-1.215-2.973-1.91-3.232zM9.004 16.512c-0.104-0.035-1.076-1.643-1.25-1.453s-0.225 0.363-0.017 0.675c0.208 0.31 1.198 1.815 1.215 1.988s0.052 1.020-0.018 1.020c-0.070 0-1.25-1.885-1.388-1.815s-0.277 0.38-0.243 0.483c0.035 0.104 1.545 2.075 1.579 2.421s0 0.848-0.070 0.761c-0.069-0.087-1.18-2.282-1.37-2.178-0.192 0.104-0.365 0.502-0.208 0.761s1.492 2.143 1.527 2.247c0.035 0.104 0 0.933-0.086 0.882-0.087-0.052-1.232-2.179-1.405-2.162-0.174 0.017-0.348 0.45-0.278 0.692s1.701 2.369 1.666 2.61c-0.035 0.242-0.018 1.159-0.104 1.107s-1.44-2.507-1.562-2.542c-0.121-0.035-0.364 0.433-0.295 0.622 0.070 0.19 1.788 3.009 1.805 3.25 0.018 0.242 0 1.574-0.121 1.505s-1.666-3.113-1.926-3.13c-0.26-0.017-0.295 0.519-0.243 0.675 0.051 0.155 2.030 3.216 2.082 3.389s0 0.346-0.191 0.433c-0.191 0.087-0.277 0.069-0.295 0.017s-1.527-2.697-1.77-2.784-0.417 0.276-0.399 0.363c0.018 0.087 1.84 2.473 1.666 2.628s-0.66 0.173-0.781 0.052c-0.122-0.12-1.631-2.732-1.805-2.732s-0.52 0.45-0.399 0.57c0.122 0.122 1.596 2.214 1.458 2.214s-0.625 0.155-0.746 0.052-1.284-2.058-1.475-2.041c-0.191 0.017-0.365 0.242-0.347 0.294s1.18 1.625 1.041 1.66-0.625 0.035-0.712-0.017c-0.088-0.052-0.833-1.486-0.974-1.52s-0.433 0.26-0.433 0.346c0 0.087 0.92 1.141 0.712 1.193s-1.267-0.052-1.336-0.087-0.434-0.415-0.451-0.744c-0.018-0.328 0.104-15.216 0.26-15.51 0.052-0.098 3.090 0.035 4.668 0.155 1.579 0.121 2.62-0.086 2.845 0.19 0.226 0.277 0.295 1.66 0.209 1.574s-0.694-1.28-0.902-1.227c-0.208 0.052-0.365 0.466-0.26 0.691 0.104 0.225 1.11 1.66 1.162 1.833s0.070 0.622-0.034 0.587zM31.875 18.12c-0.155-2.162-1.353-3.822-3.037-4.894s-4.529-1.366-6.455-0.969-3.957 2.162-4.026 2.144-0.017-1.487-0.070-1.85-0.711-0.311-2.36-0.329-3.875 0.010-3.904 0.139c-0.087 0.38 0.070 7.954 0.087 10.686s-0.121 5.724 0 6.069c0.121 0.346 1.232 1.625 1.649 1.625s4.443-0.069 5.119-0.155c0.677-0.087 0.694-0.726 0.694-1.608s-0.017-7.539 0.277-9.631c0.295-2.092 1.961-2.87 3.315-2.525 1.353 0.346 1.579 1.85 1.857 3.683s-0.242 7.037-0.26 7.608 0.070 2.23 0.382 2.352c0.313 0.122 5.050 0.018 5.744-0.017s0.937-0.121 1.041-0.588c0.105-0.467 0.105-9.579-0.052-11.74zM29.33 16.886c0.058 0.092 1.631 2.605 1.631 2.813s-0.023 0.715-0.081 0.657c-0.058-0.057-1.087-1.982-1.284-1.982s-0.451 0.404-0.37 0.565c0.081 0.162 1.562 2.398 1.573 2.57 0.012 0.174 0.035 1.223-0.023 1.13s-1.354-2.386-1.481-2.386-0.266 0.392-0.266 0.576c0 0.185 1.655 2.72 1.666 2.801 0.012 0.080 0 1.671-0.139 1.648s-0.625-0.83-1.052-1.74c-0.428-0.911-0.486-1.177-0.695-1.13-0.207 0.046-0.139 0.738-0.092 0.91s1.643 2.836 1.666 2.975 0.047 1.325-0.093 1.221c-0.139-0.104-1.55-3.148-1.724-3.17s-0.393 0.483-0.347 0.576c0.047 0.092 1.77 2.974 1.817 3.389s0 0.645-0.128 0.645c-0.127 0-0.185-0.080-0.243-0.195s-1.62-2.767-1.7-2.779c-0.081-0.012-0.325 0.484-0.232 0.634s1.504 2.237 1.423 2.26-0.671 0.023-0.74-0.023c-0.070-0.046-1.262-1.856-1.343-1.856-0.080 0-0.393 0.392-0.335 0.495s1.006 1.303 0.891 1.337c-0.115 0.035-0.567 0.046-0.637-0.023s-0.764-1.325-0.938-1.314c-0.174 0.012-0.324 0.369-0.289 0.438s0.705 0.956 0.52 1.003c-0.185 0.046-0.763 0.080-0.763 0.012s0.302-2.282 0.325-4.173c0.023-1.89-0.116-3.908-0.325-5.199-0.207-1.291-0.346-2.525-1.26-3.032-0.915-0.506-2.488-0.76-3.703-0.011-1.215 0.75-1.655 1.567-1.84 1.833s-0.207 0.576-0.207 0.576-0.637-1.13-0.879-0.819c-0.243 0.311-0.266 0.507-0.174 0.588 0.093 0.080 0.775 0.657 0.798 0.899s0.081 1.43 0.023 1.43-0.867-1.591-1.052-1.499c-0.185 0.092-0.232 0.692-0.208 0.761s1.041 1.51 1.052 1.695c0.012 0.184 0 1.037-0.046 1.003s-1.145-1.994-1.25-1.948c-0.104 0.046-0.323 0.415-0.3 0.553s1.619 2.513 1.63 2.628c0.012 0.115 0 1.43-0.104 1.43s-1.387-2.605-1.48-2.605c-0.093 0-0.405 0.495-0.37 0.645 0.034 0.15 1.781 2.813 1.828 2.997s0.058 1.579 0 1.579-1.84-3.643-1.955-3.643c-0.115 0-0.44 0.473-0.416 0.518s1.92 3.32 1.92 3.47-0.046 0.184-0.046 0.184-0.139 0.046-0.174-0.012c-0.035-0.058-1.538-2.502-1.678-2.537s-0.498 0.358-0.416 0.473 1.562 2.018 1.504 2.098c-0.058 0.080-0.729 0.046-0.798 0s-1.157-1.982-1.284-1.96c-0.127 0.023-0.44 0.473-0.417 0.53s1.065 1.465 1.053 1.499c-0.011 0.035-0.59 0.069-0.648 0.012s-0.96-1.476-1.18-1.499-0.358 0.461-0.289 0.518c0.070 0.057 0.845 1.072 0.705 1.072-0.139 0-1.156 0.069-1.18-0.185s0.197-5.187 0.185-6.823c-0.011-1.637-0.173-8.645-0.092-9.026 0.017-0.080 3.251-0.011 3.795-0.023 0.543-0.011 0.89 0.011 0.936 0.080s-0.023 2.698 0.162 2.79c0.185 0.092 0.683-0.403 0.834-0.53s0.879-0.784 2.534-1.556c1.655-0.773 3.91-0.934 5.055-0.68s2.384 0.611 3.205 1.706c0.822 1.095 1.4 2.029 1.55 2.616 0.15 0.588 0.15 1.107 0.070 1.084-0.081-0.023-1.041-2.386-1.308-2.329-0.268 0.058-0.337 0.669-0.28 0.761zM16.281 13.739c-0.185-0.115-2.187-0.080-2.325-0.080-0.14 0-0.22 0.242-0.197 0.334 0 0-0.046 0.277 0.046 0.403s1.713 0.069 1.886 0.069 0.197 0.854 0.22 1.027c0.023 0.173 0.59 0.046 0.671 0.035 0.081-0.012 0.081-0.277 0.081-0.658s-0.197-1.015-0.382-1.13zM22.933 14.719c-0.174 0.104-0.22 0.507 0.081 0.634s1.62 0.415 2.314 0.969c0.694 0.553 0.718 2.144 0.729 2.305s0.475 0.288 0.683 0.058c0.208-0.231 0.115-1.36-0.637-2.663s-3.040-1.38-3.17-1.303z"></path>
</symbol>
<symbol id="icon-github" viewBox="0 0 32 32">
<path d="M31.413 13.237c-0.31-2.289-1.274-4.060-2.502-6.303s-3.455-3.841-5.026-4.957c-1.572-1.115-3.752-1.633-5.852-1.839s-4.702-0.221-6.45 0.241c-2.433 0.643-3.993 1.31-5.645 2.817s-2.881 3.036-3.925 4.75c-1.046 1.713-1.839 4.335-1.964 5.613-0.126 1.277-0.023 3.025 0.425 5.015 0.447 1.989 1.457 3.84 2.903 6.072s3.477 3.645 5.83 5.072c2.352 1.426 7.287 2.507 9.158 2.242s4.441-0.908 7.081-3.001c2.64-2.093 4.108-5.555 4.912-7.717s1.366-5.716 1.056-8.005zM27.695 23.058c-0.080 0-1.090-1.852-1.147-1.99-0.044-0.105 0.413-0.954 0.459-0.965 0.046-0.012 1.113 1.943 1.102 1.989s-0.333 0.966-0.413 0.966zM23.817 10.81c-0.046-0.126-0.069-0.241-0.058-0.287s0.322-0.828 0.23-1.506c-0.093-0.678-0.39-1.76-0.367-1.794s1.228 0.931 1.916 2.484 1.274 2.737 1.492 4.841 0.115 3.657-0.631 5.072-1.285 2.22-1.698 2.645c-0.413 0.425-1.273 0.828-1.377 0.828s-0.47-1.863-0.758-2.45c-0.287-0.586-0.803-1.357-0.792-1.483 0 0 0.86-0.77 1.159-1.23s1.274-2.082 1.228-3.876c-0.046-1.795-0.299-3.117-0.345-3.243zM28.545 21.471c-0.093 0.080-1.328-2.051-1.263-2.116 0.104-0.103 0.448-1.207 0.517-1.253s1.205 2.024 1.205 2.162c0 0.138-0.367 1.127-0.459 1.207zM30.105 15.813c-0.148-0.127-1.101-2.265-1.227-2.312s-0.413 0.448-0.345 0.633 1.331 2.265 1.366 2.461c0.035 0.195-0.092 1.196-0.126 1.047s-0.987-2.001-1.102-2.001c-0.115 0-0.425 0.403-0.413 0.472s1.251 2.369 1.251 2.518c0 0.15-0.172 1.093-0.275 0.92-0.104-0.172-1.309-2.173-1.331-2.23-0.023-0.058 0.023-2.806-0.115-4.037s-0.596-3.668-2.306-5.659-3.523-3.358-6.14-3.98-4.2-0.586-6.162-0.494c-1.963 0.092-4.797 1.219-6.737 4.025s-2.226 3.588-2.663 5.612c-0.435 2.024 0.046 5.026 0.402 6.325 0.356 1.3 1.285 3.186 2.341 4.163s2.375 1.587 3.408 1.966 2.594 0.61 2.72 0.564c0.126-0.046 0.069-1.633 0-1.817s-0.126-0.276-0.551-0.253c-0.424 0.023-1.193 0.012-1.698-0.218s-0.918-0.69-1.205-1.207c-0.287-0.517-0.7-1.15-0.918-1.392s-0.677-0.656-0.62-0.736c0.058-0.080 0.919-0.161 1.515 0.023 0.598 0.184 1.607 0.863 2.043 1.139s0.998 0.678 1.194 0.678c0.195 0 0.598-0.92 0.77-1.139s0.573-0.955 0.401-1.115c-0.172-0.162-1.228-0.207-1.756-0.345-0.528-0.139-1.48-0.656-2.158-1.541s-0.987-2.208-0.975-3.14c0.011-0.931 0.918-2.725 1.101-3.082s0.425-0.69 0.31-0.816c-0.115-0.126-0.608-0.816-0.723-1.299s0.299-1.668 0.379-1.713 0.631 0.104 1.045 0.161c0.412 0.057 1.33 0.31 1.675 0.54s0.47 0.345 0.665 0.345c0.195 0 1.71-0.345 2.227-0.46s2.043-0.299 2.616-0.184 1.435 0.633 1.584 0.54c0.149-0.091 0.494-0.747 1.228-0.931s1.985-0.265 2.135-0.138c0.148 0.127 0.366 1.449 0.252 2.128s-0.31 1.070-0.195 1.254c0.115 0.184 0.665 1.426 0.378 2.53-0.288 1.104-0.7 2.68-2.066 3.726-1.365 1.047-1.813 1.219-1.974 1.323-0.16 0.104 0 0.426 0.149 0.552s1.159 0.805 1.652 2.323c0.494 1.518 0.574 2.415 0.574 2.726s0.357 0.437 0.631 0.38c0.275-0.058 0.596-0.253 1.045-0.599 0.447-0.345 1.721-1.253 1.813-1.207s0.884 1.736 1.078 1.794 0.333-0.080 0.355-0.195c0.023-0.115-0.619-1.346-0.791-1.68-0.172-0.333-0.299-0.529-0.253-0.632s0.436-0.575 0.517-0.495c0.080 0.081 0.93 1.427 1.078 1.657s0.264 0.276 0.104 0.552c-0.16 0.276-0.723 1.012-0.998 1.254s-0.378 0.54-0.54 0.414c-0.16-0.127-0.963-1.575-1.090-1.599-0.125-0.023-0.47 0.287-0.435 0.39s1.090 1.668 1.090 1.737-0.529 0.747-1.079 1.173-0.907 0.69-1.010 0.54c-0.104-0.149-1.183-2.656-1.355-2.69s-0.527 0.091-0.47 0.299 1.377 2.53 1.365 2.645-0.435 0.391-0.562 0.276c-0.126-0.115-1.515-2.979-1.687-3.002s-0.47 0.058-0.47 0.334 1.79 2.817 1.71 2.955c-0.081 0.139-0.413 0.449-0.54 0.323s-1.768-3.404-1.882-3.427c-0.115-0.023-0.528 0.092-0.528 0.172s1.859 3.53 1.848 3.61c-0.012 0.081-0.723 0.426-0.884 0.345-0.16-0.080-1.79-3.725-1.916-3.806-0.126-0.080-0.631 0.265-0.596 0.31 0.035 0.047 2.009 3.474 1.905 3.646s-0.563 0.23-0.642 0.15c-0.081-0.081-1.928-3.611-2.055-3.646s-0.516 0.161-0.482 0.31c0.035 0.15 1.962 3.37 1.905 3.393s-0.551 0.046-0.631-0.012c-0.080-0.057-1.745-2.668-1.951-2.725s-0.447 0.253-0.447 0.322 1.595 2.369 1.515 2.392c-0.080 0.023-0.608-0.023-0.723-0.092s-1.216-2.024-1.365-2.070c-0.15-0.046-0.505 0.218-0.46 0.334 0.046 0.115 1.125 1.587 0.988 1.587s-0.505 0.012-0.665-0.080c-0.161-0.093-0.918-1.634-1.056-1.68-0.137-0.045-0.413 0.162-0.425 0.219-0.011 0.058 0.586 1.139 0.46 1.15s-0.54-0.012-0.643-0.092c-0.104-0.081-0.803-1.254-0.906-1.288s-0.436 0.15-0.402 0.253 0.367 0.609 0.252 0.62c-0.115 0.012-2.479-0.643-3.752-1.517s-3.65-3.565-4.384-4.381c-0.735-0.817-1.756-3.255-2.111-4.578s-0.447-3.289-0.435-4.335c0.011-1.047 0.826-3.795 1.285-4.727s2.226-3.462 3.42-4.669 3.122-2.634 5.152-3.243 3.741-0.736 4.682-0.725c2.237 0.028 4.785 0.357 6.345 0.886s4.476 2.829 5.199 3.657 1.595 2.312 2.111 3.393c0.517 1.080 0.895 2.012 0.793 1.931s-0.746-1.207-0.872-1.196c-0.125 0.012-0.401 0.207-0.355 0.357s1.216 1.966 1.331 2.197c0.115 0.23 0.23 0.495 0.241 0.54 0.012 0.046 0.16 1.622 0.115 1.541s-1.159-2.105-1.308-2.162c-0.149-0.057-0.264 0.172-0.23 0.23 0.035 0.057 1.55 2.645 1.55 2.771-0.002 0.127 0.056 1.185-0.093 1.058zM9.288 10.891c0.241 0.23-0.31 0.598-0.7 1.46-0.39 0.863-0.746 2.565-0.54 3.588s0.678 2.23 1.779 3.185 2.594 1.012 2.754 1.093c0.16 0.080-0.275 0.655-0.367 0.77s-0.080 0.093-0.299-0.023c-0.217-0.115-1.469-1.185-2.777-1.46-1.309-0.276-2.111 0.115-2.399 0.367s0.035 0.713 0.402 0.989c0.367 0.276 0.792 0.794 1.331 1.782 0.54 0.989 0.872 1.207 1.745 1.506 0.871 0.3 1.56 0.311 1.698 0.323s0.104 0.414 0.012 0.564c-0.092 0.15-0.447-0.23-0.975-0.38s-1.515-0.241-2.066-0.586-2.33-2.427-2.662-3.335c-0.333-0.909-1.033-2.955-1.045-3.979-0.011-1.024-0.091-2.771 0.31-4.082s1.286-3.485 2.628-4.98 3.282-2.645 6.151-2.955c2.869-0.311 5.394 0.551 6.966 1.092s1.94 0.875 1.94 0.978c0 0-0.471 0.092-1.71 0.173s-2.043 0.737-2.089 0.817c-0.046 0.080-1.308-0.207-2.628-0.31-1.32-0.104-3.145 0.482-3.213 0.482s-0.252-0.012-0.746-0.207c-0.493-0.195-2.846-0.713-3.121-0.69s-0.883 0.77-1.010 1.886c-0.126 1.116 0.39 1.703 0.632 1.932zM18.63 1.139c-2.055-0.287-3.366-0.153-3.455-0.069-0.206 0.195-0.137 0.575 0.115 0.62 0.252 0.046 1.48-0.149 3.099 0.012s2.811 0.77 3.064 0.782c0.253 0.011 0.401-0.402 0.264-0.552s-1.033-0.506-3.087-0.793zM3.412 8.832c-1.63 1.69-1.928 3.91-2.065 4.67s0.355 1.080 0.585 0.977c0.23-0.104-0.012-0.748 0.517-2.438s1.205-2.3 1.423-2.725c0.218-0.427-0.344-0.604-0.46-0.484zM10.917 15.376c-0.184-0.483-0.046-1.115 0.069-1.656 0.115-0.54-0.402-0.518-0.528-0.391-0.333 0.334-0.459 1.392-0.333 2.047s0.712 1.621 1.022 1.771c0.31 0.15 0.608-0.046 0.54-0.368-0.070-0.322-0.586-0.92-0.77-1.403zM9.047 20.678c-0.505 0.334-0.012 0.667 0.195 0.667s0.412-0.080 0.321-0.402c-0.092-0.322-0.396-0.344-0.517-0.265zM10.091 21.587c-0.367 0.207-0.035 0.678 0.207 0.69s0.436-0.172 0.447-0.414c0.012-0.241-0.493-0.366-0.653-0.276zM11.526 22.23c-0.517 0.115-0.345 0.622-0.092 0.656s0.47-0.058 0.54-0.322c0.068-0.265-0.123-0.406-0.448-0.334zM20.741 8.994c0.115 0.011 0.459 0.069 0.619 0.069s0.15 0.943 0.23 1.23c0.080 0.288 0.505 0.3 0.665 0.139 0.161-0.161-0.057-1.702-0.172-1.851s-1.223 0.060-1.365 0.091c-0.104 0.023-0.093 0.31 0.023 0.322zM23.793 27.21c0.115 0.023 0.413-0.115 0.436-0.288s-0.861-2.265-0.942-2.311c-0.080-0.046-0.608 0.131-0.608 0.23 0 0.195 0.999 2.346 1.113 2.369z"></path>
</symbol>
</symbol>
</defs>
</svg>
